<svg width="39" height="39" viewBox="0 0 39 39" fill="none" xmlns="http://www.w3.org/2000/svg">
<rect x="0.098999" y="0.375427" width="38.901" height="38.5763" rx="4" fill="#C0DFF8"/>
<path fill-rule="evenodd" clip-rule="evenodd" d="M27.4973 16.6303H24.3213C22.8433 16.6331 21.646 17.8653 21.6433 19.3864C21.6413 20.911 22.84 22.1488 24.3213 22.1508H27.5V22.393C27.5 25.0524 25.9727 26.625 23.388 26.625H16.6127C14.0273 26.625 12.5 25.0524 12.5 22.393V16.6008C12.5 13.9414 14.0273 12.375 16.6127 12.375H23.3853C25.97 12.375 27.4973 13.9414 27.4973 16.6008V16.6303ZM16.0547 16.6241H20.2847H20.2873H20.2927C20.6093 16.6228 20.8653 16.3572 20.864 16.0306C20.8627 15.7047 20.604 15.4413 20.2873 15.4426H16.0547C15.74 15.444 15.4847 15.7068 15.4833 16.0313C15.482 16.3572 15.738 16.6228 16.0547 16.6241Z" fill="#282F65"/>
<path d="M23.0281 19.7349C23.1849 20.4879 23.8104 21.0177 24.5244 21.0039H26.9619C27.259 21.0039 27.5 20.7442 27.5 20.4231V18.419C27.4994 18.0986 27.259 17.8382 26.9619 17.8375H24.4671C23.6548 17.8403 22.9987 18.552 23 19.429C23 19.5316 23.0096 19.6343 23.0281 19.7349Z" fill="white"/>
<ellipse cx="24.5" cy="19.4208" rx="0.75" ry="0.791666" fill="#282F65"/>
</svg>
