<svg width="38" height="39" viewBox="0 0 38 39" fill="none" xmlns="http://www.w3.org/2000/svg">
<rect y="0.375427" width="38" height="38.5763" rx="4" fill="#C0DFF8"/>
<path d="M27.6163 22.2082C27.4434 21.937 27.1976 21.6658 26.8791 21.494C26.6242 21.3674 26.4604 21.1594 26.3148 20.9153C25.8506 20.1378 26.1236 19.1161 26.8973 18.655C27.8075 18.1396 28.0987 16.9914 27.5708 16.0963L26.961 15.0294C26.4422 14.1343 25.3045 13.8179 24.4034 14.3423C23.6024 14.7763 22.5739 14.4869 22.1097 13.7184C21.9641 13.4653 21.8822 13.194 21.9004 12.9228C21.9277 12.5702 21.8185 12.2356 21.6546 11.9644C21.3179 11.4038 20.7081 11.0241 20.0345 11.0241H18.7512C18.0867 11.0422 17.4769 11.4038 17.1401 11.9644C16.9672 12.2356 16.8671 12.5702 16.8853 12.9228C16.9035 13.194 16.8216 13.4653 16.676 13.7184C16.2118 14.4869 15.1833 14.7763 14.3914 14.3423C13.4812 13.8179 12.3526 14.1343 11.8247 15.0294L11.2149 16.0963C10.6961 16.9914 10.9873 18.1396 11.8884 18.655C12.6621 19.1161 12.9351 20.1378 12.48 20.9153C12.3253 21.1594 12.1615 21.3674 11.9066 21.494C11.5971 21.6658 11.3241 21.937 11.1785 22.2082C10.8417 22.7688 10.8599 23.474 11.1967 24.0617L11.8247 25.1467C12.1615 25.7253 12.7895 26.087 13.4448 26.087C13.7543 26.087 14.1183 25.9966 14.4096 25.8157C14.6372 25.662 14.9102 25.6078 15.2106 25.6078C16.1116 25.6078 16.8671 26.3582 16.8853 27.2533C16.8853 28.2931 17.7227 29.1068 18.7785 29.1068H20.0163C21.063 29.1068 21.9004 28.2931 21.9004 27.2533C21.9277 26.3582 22.6832 25.6078 23.5842 25.6078C23.8755 25.6078 24.1485 25.662 24.3852 25.8157C24.6764 25.9966 25.0314 26.087 25.35 26.087C25.9962 26.087 26.6242 25.7253 26.961 25.1467L27.5981 24.0617C27.9258 23.4559 27.9531 22.7688 27.6163 22.2082Z" fill="#282F65"/>
<path d="M19.4065 22.6242C17.9775 22.6242 16.8216 21.494 16.8216 20.0745C16.8216 18.655 17.9775 17.5158 19.4065 17.5158C20.8355 17.5158 21.9641 18.655 21.9641 20.0745C21.9641 21.494 20.8355 22.6242 19.4065 22.6242Z" fill="white"/>
</svg>
