<svg width="21" height="21" viewBox="0 0 21 21" fill="none" xmlns="http://www.w3.org/2000/svg">
<path d="M8.24205 18.1202V15.5646C8.24203 14.9145 8.77196 14.3864 9.42854 14.382H11.8336C12.4933 14.382 13.0281 14.9115 13.0281 15.5646V15.5646V18.1281C13.028 18.68 13.4729 19.1311 14.0302 19.144H15.6336C17.232 19.144 18.5277 17.8612 18.5277 16.2789V16.2789V9.00887C18.5192 8.38636 18.2239 7.8018 17.726 7.42153L12.2425 3.04842C11.2818 2.28698 9.9162 2.28698 8.95555 3.04842L3.49605 7.42947C2.99625 7.80819 2.70052 8.39373 2.69437 9.01681V16.2789C2.69437 17.8612 3.9901 19.144 5.58846 19.144H7.19183C7.76299 19.144 8.22601 18.6856 8.22601 18.1202V18.1202" stroke="#282F65" stroke-width="2" stroke-linecap="round" stroke-linejoin="round"/>
</svg>
