<svg width="50" height="32" viewBox="0 0 50 32" fill="none" xmlns="http://www.w3.org/2000/svg">
<path d="M36.9319 22.6154C36.1365 25.3292 34.4319 27.4776 33.1819 28.6083C32.5001 29.2868 32.3865 30.4175 33.0683 31.209L33.2956 31.4352C33.8637 32.0006 34.7728 32.2267 35.4547 31.8875C50.341 24.0854 50.1137 13.6825 50.0001 11.9864C50.0001 11.7603 50.0001 11.6472 50.0001 11.4211C50.0001 5.20198 44.8865 0.113638 38.6365 0.113638C32.3865 0.113638 27.2728 5.20198 27.2728 11.4211C27.1592 17.0748 31.4774 21.8239 36.9319 22.6154Z" fill="#53E1A5"/>
<path d="M9.77272 22.615C9.0909 25.3288 7.38636 27.3641 6.13636 28.608C5.45454 29.2864 5.3409 30.4171 6.02272 31.2087L6.24999 31.4348C6.81817 32.0002 7.72726 32.2263 8.40908 31.774C23.1818 24.085 22.9545 13.6822 22.8409 11.9861C22.8409 11.7599 22.8409 11.6468 22.8409 11.4207C22.8409 5.2016 17.7273 0.11326 11.4773 0.11326C5.22726 0.11326 0.113625 5.2016 0.113625 11.4207C-1.14441e-05 17.0744 4.31817 21.8235 9.77272 22.615Z" fill="#53E1A5"/>
</svg>
