<svg width="14" height="14" viewBox="0 0 14 14" fill="none" xmlns="http://www.w3.org/2000/svg">
<path d="M3.39803 8.18362L3.39805 8.18359L3.40228 8.18769C3.69329 8.46972 3.8263 8.87666 3.76025 9.27516L3.76031 9.27517L3.75902 9.28232L3.16642 12.5619C3.1664 12.562 3.16638 12.5621 3.16636 12.5622C3.15131 12.6466 3.18681 12.7325 3.25843 12.782L3.25853 12.7818L3.26938 12.7898C3.3409 12.842 3.43752 12.8493 3.51804 12.8061L3.51803 12.8061L3.5231 12.8034L6.4741 11.2643C6.64656 11.1729 6.83568 11.1251 7.02604 11.1196L7.03318 11.1194H7.04032H7.22098H7.25801L7.29464 11.1249C7.41103 11.1422 7.52744 11.1794 7.63638 11.2383L10.5816 12.7814C10.6316 12.8058 10.6871 12.8147 10.7414 12.8074C10.8647 12.7805 10.9468 12.6621 10.928 12.5363L10.3356 9.26175L10.3356 9.26176L10.3343 9.25383C10.2686 8.85428 10.401 8.44782 10.6895 8.16379L10.6895 8.16378L10.6923 8.16105L13.0995 5.82789C13.0995 5.82787 13.0995 5.82784 13.0996 5.82782C13.1618 5.7674 13.1826 5.67793 13.1547 5.59758L13.1534 5.59368C13.1237 5.50605 13.0488 5.44267 12.9587 5.42769L9.6581 4.94886C9.24043 4.90181 8.875 4.64615 8.6871 4.27035L8.68708 4.27037L8.68492 4.26594L7.2285 1.27995C7.2212 1.26653 7.21345 1.25532 7.20582 1.24617L7.17401 1.22142L7.13943 1.19452L7.12889 1.18287L7.12873 1.18281L7.1196 1.17946L7.11061 1.17575L7.08874 1.16675H6.93978C6.86497 1.18027 6.80114 1.22699 6.76609 1.29325L5.2901 4.2665C5.28986 4.26701 5.28961 4.26751 5.28936 4.26802C5.10997 4.63338 4.7629 4.88577 4.36337 4.94698L4.36337 4.947L4.35943 4.94757L1.0461 5.42824L1.04503 5.42839C0.952224 5.44165 0.873978 5.50506 0.841554 5.59305C0.816808 5.67435 0.840105 5.76301 0.903114 5.82212L0.904694 5.82362L3.39803 8.18362Z" fill="white" stroke="#F4BF00"/>
</svg>
