<svg width="14" height="14" viewBox="0 0 14 14" fill="none" xmlns="http://www.w3.org/2000/svg">
<path d="M3.05432 8.54675C3.22698 8.71408 3.30632 8.95608 3.26698 9.19341L2.67432 12.4734C2.62432 12.7514 2.74165 13.0327 2.97432 13.1934C3.20232 13.3601 3.50565 13.3801 3.75432 13.2467L6.70698 11.7067C6.80965 11.6521 6.92365 11.6227 7.04032 11.6194H7.22098C7.28365 11.6287 7.34498 11.6487 7.40098 11.6794L10.3543 13.2267C10.5003 13.3001 10.6656 13.3261 10.8276 13.3001C11.2223 13.2254 11.4857 12.8494 11.421 12.4527L10.8276 9.17275C10.7883 8.93341 10.8676 8.69008 11.0403 8.52008L13.4477 6.18675C13.649 5.99141 13.719 5.69808 13.627 5.43341C13.5377 5.16941 13.3097 4.97675 13.0343 4.93341L9.72098 4.45275C9.46898 4.42675 9.24765 4.27341 9.13432 4.04675L7.67432 1.05341C7.63965 0.986748 7.59498 0.925415 7.54098 0.873415L7.48098 0.826748C7.44965 0.792081 7.41365 0.763415 7.37365 0.740081L7.30098 0.713415L7.18765 0.666748H6.90698C6.65632 0.692748 6.43565 0.842748 6.32032 1.06675L4.84098 4.04675C4.73432 4.26475 4.52698 4.41608 4.28765 4.45275L0.974317 4.93341C0.694317 4.97341 0.460317 5.16675 0.36765 5.43341C0.280317 5.70075 0.355649 5.99408 0.560983 6.18675L3.05432 8.54675Z" fill="#F4BF00"/>
</svg>
