<svg width="44" height="44" viewBox="0 0 44 44" fill="none" xmlns="http://www.w3.org/2000/svg">
<circle cx="22" cy="22" r="22" fill="white"/>
<path d="M22.001 12.002C16.479 12.002 12.002 16.479 12.002 22.001C12.002 26.991 15.658 31.127 20.439 31.88V24.892H17.899V22.001H20.439V19.798C20.439 17.29 21.932 15.907 24.215 15.907C25.309 15.907 26.455 16.102 26.455 16.102V18.561H25.191C23.951 18.561 23.563 19.333 23.563 20.124V21.999H26.334L25.891 24.89H23.563V31.878C28.344 31.129 32 26.992 32 22.001C32 16.479 27.523 12.002 22.001 12.002Z" fill="black"/>
</svg>
