<svg width="44" height="44" viewBox="0 0 44 44" fill="none" xmlns="http://www.w3.org/2000/svg">
<circle cx="22" cy="22" r="22" fill="#FFA800"/>
<path d="M21.999 17.3769C19.445 17.3769 17.376 19.4469 17.376 21.9999C17.376 24.5539 19.445 26.6239 21.999 26.6239C24.551 26.6239 26.622 24.5539 26.622 21.9999C26.622 19.4469 24.551 17.3769 21.999 17.3769ZM21.999 25.0039C20.34 25.0039 18.995 23.6589 18.995 22.0009C18.995 20.3419 20.34 18.9979 21.999 18.9979C23.658 18.9979 25.001 20.3419 25.001 22.0009C25.001 23.6589 23.658 25.0039 21.999 25.0039Z" fill="white"/>
<path d="M26.806 18.2849C27.4014 18.2849 27.884 17.8022 27.884 17.2069C27.884 16.6115 27.4014 16.1289 26.806 16.1289C26.2107 16.1289 25.728 16.6115 25.728 17.2069C25.728 17.8022 26.2107 18.2849 26.806 18.2849Z" fill="white"/>
<path d="M30.533 16.1109C30.064 14.9019 29.109 13.9459 27.9 13.4789C27.201 13.2159 26.462 13.0749 25.714 13.0589C24.751 13.0169 24.446 13.0049 22.004 13.0049C19.562 13.0049 19.249 13.0049 18.294 13.0589C17.548 13.0739 16.809 13.2149 16.11 13.4789C14.9 13.9459 13.945 14.9019 13.477 16.1109C13.214 16.8109 13.073 17.5489 13.058 18.2969C13.015 19.2589 13.002 19.5639 13.002 22.0069C13.002 24.4489 13.002 24.7599 13.058 25.7169C13.073 26.4649 13.214 27.2029 13.477 27.9039C13.946 29.1119 14.901 30.0679 16.111 30.5359C16.807 30.8079 17.546 30.9619 18.296 30.9859C19.259 31.0279 19.564 31.0409 22.006 31.0409C24.448 31.0409 24.761 31.0409 25.716 30.9859C26.463 30.9709 27.202 30.8289 27.902 30.5669C29.111 30.0979 30.066 29.1429 30.535 27.9339C30.798 27.2339 30.939 26.4959 30.954 25.7479C30.997 24.7859 31.01 24.4809 31.01 22.0379C31.01 19.5949 31.01 19.2849 30.954 18.3279C30.941 17.5699 30.801 16.8189 30.533 16.1109ZM29.315 25.6429C29.308 26.2189 29.204 26.7899 29.004 27.3309C28.699 28.1179 28.078 28.7399 27.292 29.0419C26.757 29.2409 26.193 29.3449 25.622 29.3529C24.672 29.3969 24.404 29.4079 21.968 29.4079C19.53 29.4079 19.281 29.4079 18.313 29.3529C17.744 29.3459 17.178 29.2409 16.644 29.0419C15.855 28.7409 15.23 28.1189 14.925 27.3309C14.729 26.7969 14.623 26.2319 14.614 25.6619C14.571 24.7119 14.561 24.4439 14.561 22.0079C14.561 19.5709 14.561 19.3219 14.614 18.3529C14.621 17.7769 14.725 17.2069 14.925 16.6659C15.23 15.8769 15.855 15.2559 16.644 14.9539C17.178 14.7559 17.744 14.6509 18.313 14.6429C19.264 14.5999 19.531 14.5879 21.968 14.5879C24.405 14.5879 24.655 14.5879 25.622 14.6429C26.193 14.6499 26.757 14.7549 27.292 14.9539C28.078 15.2569 28.699 15.8789 29.004 16.6659C29.2 17.1999 29.306 17.7649 29.315 18.3349C29.358 19.2859 29.369 19.5529 29.369 21.9899C29.369 24.4259 29.369 24.6879 29.326 25.6439H29.315V25.6429Z" fill="white"/>
</svg>
