<svg width="44" height="44" viewBox="0 0 44 44" fill="none" xmlns="http://www.w3.org/2000/svg">
<circle cx="22" cy="22" r="22" fill="#FFA800"/>
<path d="M32.4592 16.0124C31.6896 16.3537 30.8624 16.5844 29.9944 16.6881C30.8803 16.157 31.5609 15.316 31.8813 14.3138C31.052 14.8056 30.1336 15.1628 29.156 15.3552C28.3732 14.5211 27.2579 14 26.0235 14C23.6534 14 21.7317 15.9215 21.7317 18.2915C21.7317 18.6279 21.7697 18.9555 21.8429 19.2696C18.2761 19.0906 15.1138 17.382 12.9971 14.7855C12.6277 15.4194 12.416 16.1566 12.416 16.9431C12.416 18.432 13.1736 19.7456 14.3252 20.5153C13.6218 20.4929 12.96 20.2999 12.3814 19.9785C12.381 19.9964 12.381 20.0143 12.381 20.0324C12.381 22.1118 13.8603 23.8463 15.8236 24.2406C15.4635 24.3387 15.0843 24.3912 14.6929 24.3912C14.4164 24.3912 14.1476 24.3642 13.8855 24.3142C14.4316 26.0191 16.0165 27.26 17.8945 27.2945C16.4258 28.4457 14.5753 29.1318 12.5645 29.1318C12.2181 29.1318 11.8765 29.1114 11.5408 29.0717C13.44 30.2894 15.6959 31 18.1195 31C26.0134 31 30.3302 24.4605 30.3302 18.7892C30.3302 18.6031 30.326 18.418 30.3177 18.2339C31.1563 17.6289 31.8839 16.873 32.4592 16.0124Z" fill="white"/>
</svg>
