<svg width="44" height="44" viewBox="0 0 44 44" fill="none" xmlns="http://www.w3.org/2000/svg">
<circle cx="22" cy="22" r="22" fill="white"/>
<path d="M31.593 17.203C31.363 16.345 30.688 15.668 29.831 15.437C28.265 15.007 22 15 22 15C22 15 15.736 14.993 14.169 15.404C13.329 15.633 12.635 16.325 12.403 17.182C11.99 18.748 11.986 21.996 11.986 21.996C11.986 21.996 11.982 25.26 12.392 26.81C12.622 27.667 13.297 28.344 14.155 28.575C15.737 29.005 21.985 29.012 21.985 29.012C21.985 29.012 28.25 29.019 29.816 28.609C30.672 28.379 31.35 27.703 31.583 26.846C31.997 25.281 32 22.034 32 22.034C32 22.034 32.02 18.769 31.593 17.203ZM19.996 25.005L20.001 19.005L25.208 22.01L19.996 25.005Z" fill="black"/>
</svg>
